<svg xmlns="http://www.w3.org/2000/svg" viewBox="0 0 760 558">
<path transform="translate(278,4)" d="m0 0h13l27 2 10 1-2 4-9 9-7 8-28 28-7 8-21 21-7 8-3 3-29 10-23 12-14 10-11 9-15 15-13 17-9 15-9 19-6 18-5 25-1 8v28l3 21 6 23 9 21 8 15 10 14 11 13 10 10 14 11 10 7 14 8 24 10 23 6 18 3h34l24-4 20-6 18-8 16-9 16-12 10-9 11-11 9-11 11-17 2-4-33-1-32-32v-2h-2l-7-8-12-12-5-4-7-8-16-16v-1h224v21l-3 23-6 27-8 24-12 26-11 19-12 17-8 10-12 14-14 14-8 7-18 14-19 12-23 12-19 8-26 8-20 4-15 2-13 1h-41l-18-2-24-5-20-6-20-8-23-11-19-12-11-8-14-11-13-12-13-13-9-11-10-13-10-15-12-22-10-23-8-26-5-23-2-15-1-13v-30l2-20 4-23 7-25 8-21 10-21 12-20 14-19 12-14 21-21 14-11 17-12 19-11 23-11 25-9 29-7 24-3z" fill="#EC2029"/>
<path transform="translate(402,33)" d="m0 0 6 1 24 14 11 8 13 10 13 12 3 2-2 4-12 13-43 43-2 3-4-1-11-10-15-11-14-8-14-7-16-6 2-4 15-15 7-8 23-23 7-8z" fill="#EC2029"/>
</svg>
