<svg xmlns="http://www.w3.org/2000/svg" viewBox="0 0 2048 550" width="963" height="259">
<path transform="translate(1635,135)" d="m0 0h32l23 4 18 6 16 8 14 10 10 9 8 8 3 4v2l5-3 9-9 13-10 13-8 16-8 16-6 23-5 14-2h36l25 4 17 5 20 9 15 10 14 12 11 13 10 15 8 17 7 23 3 17 1 11v252h-103l-1-232-3-16-5-12-6-10-7-8-10-7-12-5-10-2h-22l-14 3-12 5-11 7-8 7-9 13-6 13-3 11-1 7-1 24v201l-1 1h-102l-1-229-3-18-5-13-7-11-5-6-11-8-12-5-10-2h-22l-18 4-14 7-11 9-9 11-7 14-4 14-2 16-1 217h-103l-1-1v-380h103v36l8-7 11-9 16-10 17-8 16-5z" fill="#EC2029"/>
<path transform="translate(1195,134)" d="m0 0h35l24 3 25 6 17 6 19 9 17 11 14 11 14 14 11 14 9 14 8 15 9 23 5 19 3 18 1 11v45l-1 11-2 1h-290l7 21 8 15 8 10 12 12 13 8 13 6 15 4 13 2h26l22-4 15-5 19-10 14-11 10-10 7-9 5 2 15 9 28 17 24 15 6 4-7 11-11 13-9 10-11 10-16 12-17 10-19 9-24 8-26 5-27 3h-29l-25-3-20-4-27-9-16-8-14-8-11-8-10-8-19-19-10-13-12-20-10-22-6-19-4-19-3-27v-24l3-26 6-25 8-20 8-17 12-19 12-14 9-10 7-7 14-11 15-10 19-10 24-9 21-5zm2 85-20 4-16 7-11 7-12 11-10 13-9 17-3 10h186l-3-12-8-16-8-11-12-12-13-8-14-6-12-3-7-1z" fill="#EC2029"/>
<path transform="translate(769,134)" d="m0 0h36l23 3 22 5 18 6 16 7 17 10 17 13 18 18 13 17 11 19 10 24 6 21 3 17 2 25v18l-1 25-2 3h-291l7 20 9 17 9 11 8 8 15 10 11 5 17 5 13 2h26l23-4 19-7 16-9 11-9 4-2 2-4 5-5 7-9 4 1 28 17 26 16 19 12 1 2-9 13-11 13-12 12-11 9-14 10-14 8-16 8-27 9-25 5-28 3h-28l-25-3-20-4-17-5-21-9-17-9-19-14-12-11-8-8-11-14-7-10-9-16-7-15-6-18-5-20-3-22-1-25 2-24 4-22 6-20 8-19 9-17 11-16 11-13 8-9 8-7 15-12 18-11 16-8 21-8 21-5zm2 85-16 3-16 6-13 8-9 7-7 8-8 10-8 16-3 8v3h185l-2-10-7-16-8-11-9-10-12-9-17-8-14-4-8-1z" fill="#EC2029"/>
<path transform="translate(278,4)" d="m0 0h13l27 2 10 1-2 4-9 9-7 8-28 28-7 8-21 21-7 8-3 3-29 10-23 12-14 10-11 9-15 15-13 17-9 15-9 19-6 18-5 25-1 8v28l3 21 6 23 9 21 8 15 10 14 11 13 10 10 14 11 10 7 14 8 24 10 23 6 18 3h34l24-4 20-6 18-8 16-9 16-12 10-9 11-11 9-11 11-17 2-4-33-1-32-32v-2h-2l-7-8-12-12-5-4-7-8-16-16v-1h224v21l-3 23-6 27-8 24-12 26-11 19-12 17-8 10-12 14-14 14-8 7-18 14-19 12-23 12-19 8-26 8-20 4-15 2-13 1h-41l-18-2-24-5-20-6-20-8-23-11-19-12-11-8-14-11-13-12-13-13-9-11-10-13-10-15-12-22-10-23-8-26-5-23-2-15-1-13v-30l2-20 4-23 7-25 8-21 10-21 12-20 14-19 12-14 21-21 14-11 17-12 19-11 23-11 25-9 29-7 24-3z" fill="#EC2029"/>
<path transform="translate(402,33)" d="m0 0 6 1 24 14 11 8 13 10 13 12 3 2-2 4-12 13-43 43-2 3-4-1-11-10-15-11-14-8-14-7-16-6 2-4 15-15 7-8 23-23 7-8z" fill="#EC2029"/>
</svg>